<svg width="512" height="512" viewBox="0 0 512 512" fill="none" xmlns="http://www.w3.org/2000/svg"
     xmlns:xlink="http://www.w3.org/1999/xlink" class="">
    <rect id="r9" width="512" height="512" x="0" y="0" rx="128" fill="url(#ra)" stroke="#FFFFFF" stroke-width="0"
          stroke-opacity="100%" paint-order="stroke"></rect>
    <clipPath id="clip">
        <use xlink:href="#r9"></use>
    </clipPath>
    <defs>
        <radialGradient id="ra" cx="50%" cy="50%" r="100%" fx="50%" fy="100%" gradientUnits="objectBoundingBox">
            <stop stop-color="#ffffff"></stop>
            <stop offset="1" stop-color="#666666"></stop>
        </radialGradient>
        <radialGradient id="rb" cx="0" cy="0" r="1" gradientUnits="userSpaceOnUse"
                        gradientTransform="translate(256) rotate(90) scale(512)">
            <stop stop-color="white"></stop>
            <stop offset="1" stop-color="white" stop-opacity="0"></stop>
        </radialGradient>
    </defs>
    <svg xmlns="http://www.w3.org/2000/svg" fill="none" viewBox="0 0 4334.92 4334.92" width="396" height="396" x="60" y="60"
         alignment-baseline="middle" style="color: rgb(35, 35, 35);">
        <path fill="currentColor" fill-rule="evenodd"
              d="M3297.84 464.7c-35.18,60.96 -113.03,81.79 -174.12,46.74 -60.96,-35.31 -81.79,-113.29 -46.61,-174.25 35.18,-60.96 113.16,-81.92 174.12,-46.74 60.96,35.31 81.92,113.29 46.61,174.25zm909.58 1830.34c-70.36,0 -127.51,-57.15 -127.51,-127.51 0,-70.49 57.15,-127.51 127.51,-127.51 70.49,0 127.51,57.02 127.51,127.51 0,70.36 -57.02,127.51 -127.51,127.51zm-209.68 -1037.09c-60.96,35.18 -138.94,14.22 -174.11,-46.74 -35.18,-60.96 -14.36,-138.94 46.6,-174.12 61.09,-35.18 139.07,-14.35 174.25,46.61 35.18,60.96 14.35,139.07 -46.74,174.25zm-127.51 2039.89c-60.96,-35.18 -81.78,-113.03 -46.6,-174.12 35.17,-60.96 113.15,-81.79 174.11,-46.61 61.09,35.18 81.92,113.16 46.74,174.12 -35.18,60.96 -113.16,81.92 -174.25,46.61zm-1830.21 909.58c0,-70.36 57.03,-127.38 127.51,-127.38 70.36,0 127.51,57.02 127.51,127.38 0,70.49 -57.15,127.51 -127.51,127.51 -70.48,0 -127.51,-57.02 -127.51,-127.51zm1037.09 -209.55c-35.18,-61.09 -14.35,-139.07 46.61,-174.25 61.09,-35.18 138.94,-14.35 174.12,46.74 35.31,60.96 14.35,138.94 -46.61,174.12 -60.96,35.18 -138.94,14.35 -174.12,-46.61zm-1819.16 0c-35.31,60.96 -113.29,81.79 -174.25,46.61 -60.96,-35.18 -81.79,-113.16 -46.61,-174.12 35.18,-61.09 113.16,-81.92 174.12,-46.74 60.96,35.18 81.92,113.16 46.74,174.25zm-1130.56 -1702.83c-70.36,0 -127.39,-57.15 -127.39,-127.51 0,-70.49 57.03,-127.51 127.39,-127.51 70.48,0 127.63,57.02 127.63,127.51 0,70.36 -57.15,127.51 -127.63,127.51zm337.31 1002.8c-61.09,35.31 -138.94,14.35 -174.25,-46.61 -35.18,-60.96 -14.22,-138.94 46.74,-174.12 60.96,-35.18 138.94,-14.35 174.12,46.61 35.18,61.09 14.35,138.94 -46.61,174.12zm-127.51 -2039.89c-60.96,-35.18 -81.92,-113.29 -46.74,-174.25 35.31,-60.96 113.16,-81.79 174.25,-46.61 60.96,35.18 81.79,113.16 46.61,174.12 -35.18,60.96 -113.16,81.92 -174.12,46.74zm1702.83 -1130.44c0,-70.48 57.03,-127.51 127.51,-127.51 70.36,0 127.51,57.03 127.51,127.51 0,70.36 -57.15,127.51 -127.51,127.51 -70.49,0 -127.51,-57.15 -127.51,-127.51l0 0zm-1002.93 337.19c-35.18,-60.96 -14.35,-138.94 46.61,-174.25 60.96,-35.18 138.94,-14.22 174.25,46.74 35.18,60.96 14.22,138.94 -46.74,174.25 -60.96,35.05 -138.94,14.22 -174.12,-46.74zm1925.09 836.68c-70.49,122.05 -226.45,163.83 -348.37,93.35 -122.05,-70.36 -163.83,-226.32 -93.34,-348.36 70.36,-121.92 226.31,-163.71 348.36,-93.35 121.92,70.49 163.7,226.44 93.35,348.36zm-441.71 1987.31c-70.49,-122.04 -28.71,-278 93.34,-348.36 121.92,-70.49 277.88,-28.7 348.37,93.35 70.35,121.92 28.57,277.88 -93.35,348.24 -122.05,70.48 -278.01,28.7 -348.36,-93.22l0 -0.01zm794.51 -866.14c-140.84,0 -255.01,-114.17 -255.01,-255.02 0,-140.84 114.17,-255.01 255.01,-255.01 140.85,0 255.02,114.17 255.02,255.01 0,140.85 -114.17,255.02 -255.02,255.02zm-1500.38 866.14c-70.36,121.92 -226.45,163.71 -348.37,93.35 -121.92,-70.49 -163.7,-226.44 -93.34,-348.36 70.48,-122.05 226.44,-163.83 348.36,-93.35 121.92,70.36 163.7,226.32 93.35,348.36zm-441.72 -1987.31c-70.36,-121.92 -28.57,-277.88 93.35,-348.36 121.92,-70.36 278.01,-28.57 348.36,93.35 70.36,122.04 28.58,278 -93.34,348.36 -121.92,70.49 -277.88,28.7 -348.37,-93.35zm-352.93 1121.17c-140.84,0 -255.02,-114.3 -255.02,-255.02 0,-140.97 114.18,-255.01 255.02,-255.01 140.84,0 255.02,114.04 255.02,255.01 0,140.72 -114.18,255.02 -255.02,255.02zm1139.34 -637.46c-129.17,2.89 -253.72,71.15 -322.98,191.17 -105.66,183.01 -42.93,416.95 139.95,522.49 183.01,105.66 416.95,43.06 522.49,-139.95 105.66,-182.88 42.93,-416.95 -139.95,-522.49 -62.91,-36.32 -131.84,-52.74 -199.5,-51.22l-0.01 0z"
              clip-rule="evenodd"/>
    </svg>
</svg>
